<svg xmlns="http://www.w3.org/2000/svg" style="display: none;">
  
    <symbol id="icon-browser" viewBox="0 0 512 512">
      <path d="m192 96l32 0 0 32-32 0z m-64 0l32 0 0 32-32 0z m-64 0l32 0 0 32-32 0z m384 320l-384 0 0-256 384 0z m0-288l-192 0 0-32 192 0z m32-32c0-18-14-32-32-32l-384 0c-18 0-32 14-32 32l0 320c0 18 14 32 32 32l384 0c18 0 32-14 32-32z"/>
    </symbol>
  
    <symbol id="icon-foot" viewBox="0 0 512 512">
      <path d="m168 184c0 12-10 22-22 22c-12 0-22-10-22-22c0-13 10-22 22-22c12 0 22 9 22 22z m214-104c0 24-20 44-45 44c-25 0-45-20-45-44c0-25 20-45 45-45c25 0 45 20 45 45z m-110 14c0 15-12 28-28 28c-15 0-28-13-28-28c0-16 13-28 28-28c16 0 28 12 28 28z m101 285c-7-11-11-25-11-39c0-13 3-25 9-35l-1 0c12-17 18-37 18-59c0-58-47-105-105-105c-58 0-105 47-105 105c0 12 2 23 5 33c2 9 6 18 11 25l-1 1l76 131c8 24 31 41 57 41c34 0 60-27 60-60c0-14-5-27-13-38z m-166-242c0 12-10 22-22 22c-12 0-22-10-22-22c0-13 10-23 22-23c12 0 22 10 22 23z"/>
    </symbol>
  
    <symbol id="icon-crown" viewBox="0 0 512 512">
      <path d="m430 410c0-9-7-16-15-16l-318 0c-8 0-15 7-15 16l0 19c0 9 7 16 15 16l318 0c8 0 15-7 15-16z m-304-213l0 0l0 0c-3-3-7-4-11-4c-9 0-16 7-17 16l0 0l0 150l1 0c0 8 7 15 16 15c0 0 0 0 0 0l0 0l282 0l0-1c0 0 0 0 0 0c8 0 15-6 16-14l1 0l0-2c0 0 0 0 0 0l0-145c0-1 0-2 0-3c0-10-8-17-17-17c-4 0-7 1-10 4l0 0l-1 0c0 1-1 1-1 2l-36 35l-81-81l0 0c-3-3-7-5-12-5c-5 0-9 2-12 5l0 0l-82 81l-34-35c-1 0-1-1-2-1z m248 43l0 0l-1 0z m-229-101c0 17-13 31-31 31c-17 0-31-14-31-31c0-17 14-31 31-31c18 0 31 14 31 31z m282 0c0 17-14 31-31 31c-17 0-31-14-31-31c0-17 14-31 31-31c17 0 31 14 31 31z m-138-41c0 17-14 31-31 31c-17 0-31-14-31-31c0-17 14-31 31-31c17 0 31 14 31 31z"/>
    </symbol>
  
    <symbol id="icon-contrast" viewBox="0 0 512 512">
      <path d="m256 64c-106 0-192 86-192 192c0 106 86 192 192 192c106 0 192-86 192-192c0-106-86-192-192-192z m1 51c77 0 140 63 140 141c0 78-63 141-140 141z"/>
    </symbol>
  
    <symbol id="icon-github" viewBox="0 0 512 512">
      <path d="m475 256c0 48-14 91-41 129-28 38-64 65-109 79-5 1-8 1-11-2-2-2-3-5-3-8l0-61c0-18-5-32-15-40 11-1 20-3 29-5 9-3 18-6 27-11 9-6 17-12 23-19 6-8 11-18 15-30 4-13 6-27 6-43 0-23-8-43-23-59 7-18 7-37-2-59-5-1-13 0-23 4-10 3-19 8-26 12l-11 7c-18-5-36-7-55-7-19 0-37 2-55 7-3-2-7-5-12-8-5-3-13-6-24-11-11-4-19-5-24-4-9 22-9 41-2 59-15 16-23 36-23 59 0 16 2 30 6 42 4 13 9 23 15 30 6 8 14 14 23 20 9 5 18 8 27 11 8 2 18 4 29 5-8 7-12 17-14 29-4 2-8 4-13 5-4 1-10 1-16 1-6 0-13-2-19-6-6-4-11-10-16-18-3-6-8-11-14-15-5-4-10-6-14-7l-5-1c-4 0-7 1-9 2-1 1-2 2-1 3 0 1 1 3 2 4 2 1 3 2 4 3l2 2c4 2 8 5 13 11 4 5 7 10 9 14l2 7c3 7 7 13 13 17 6 5 12 8 19 9 7 1 14 2 20 2 6 0 12 0 16-1l6-1c0 7 0 16 1 25 0 10 0 15 0 16 0 3-2 6-4 8-2 3-6 3-11 2-45-14-81-41-109-79-27-38-41-81-41-129 0-40 9-77 29-110 20-34 46-60 80-80 33-20 70-29 110-29 40 0 77 9 110 29 34 20 60 46 80 80 20 33 29 70 29 110z"/>
    </symbol>
  
    <symbol id="icon-heart" viewBox="0 0 512 512">
      <path d="m256 475c-5 0-9-1-13-5l-178-172c-2-1-4-4-8-7-3-4-8-10-16-19-7-9-13-18-19-28-6-9-11-21-15-34-5-14-7-27-7-40 0-42 12-74 36-98 24-24 58-35 101-35 11 0 23 2 36 6 12 4 23 9 34 16 11 7 20 14 27 20 8 6 15 12 22 19 7-7 14-13 22-19 7-6 16-13 27-20 11-7 22-12 34-16 13-4 25-6 36-6 43 0 77 11 101 35 24 24 36 56 36 98 0 42-22 85-65 129l-178 171c-4 4-8 5-13 5z"/>
    </symbol>
  
    <symbol id="icon-heartbeat" viewBox="0 0 512 512">
      <path d="m366 293l87 0c-1 1-2 2-3 3-1 0-2 1-3 2l0 1-178 171c-4 4-8 5-13 5-5 0-9-1-13-5l-178-172c-1 0-3-2-6-5l106 0c4 0 8-2 11-4 3-3 5-6 6-10l20-80 55 190c1 4 3 7 6 10 3 2 7 3 11 3 4 0 8-1 11-3 3-3 6-6 7-10l41-138 16 32c4 6 9 10 17 10z m146-123c0 28-10 56-29 86l-106 0-32-63c-1-3-4-6-7-8-3-2-7-3-10-2-9 1-14 5-16 13l-37 123-56-196c-1-4-4-7-7-10-3-2-7-3-11-3-4 0-8 1-11 4-4 2-6 5-7 9l-33 133-121 0c-19-30-29-58-29-86 0-42 12-74 36-98 24-24 58-35 101-35 11 0 23 2 36 6 12 4 23 9 34 16 11 7 20 14 27 20 8 6 15 12 22 19 7-7 14-13 22-19 7-6 16-13 27-20 11-7 22-12 34-16 13-4 25-6 36-6 43 0 77 11 101 35 24 24 36 56 36 98z"/>
    </symbol>
  
    <symbol id="icon-angellist" viewBox="0 0 512 512">
      <path d="m345 108l-32 94 33 6c32-86 47-136 47-148 0-11-3-16-10-16-11 0-24 21-38 64z m-85 196l9 25c7-8 14-14 21-19l-10-1-11-2z m-83-256c0 19 15 69 45 149 3-2 8-3 14-3 3 0 10 1 21 2l-34-101c-14-41-26-62-35-62-4 0-7 1-9 5-1 3-2 6-2 10z m-23 217c0 7 5 18 15 34 10 16 21 31 33 44 13 13 22 20 29 20 3 0 5-1 7-4 2-2 3-5 3-8 0-4-3-14-9-29-2-6-5-13-9-20-3-8-8-16-13-26-6-9-12-17-18-23-6-6-12-9-18-9-4 0-8 3-13 8-5 5-7 9-7 13z m-45 96c0 8 2 18 7 30 11 27 29 49 52 64 24 16 51 24 81 24 43 0 79-16 109-49 29-32 43-73 43-122 0-8 0-14 0-19 0-4-1-10-3-18-2-7-5-12-9-16-11-9-31-16-60-21-30-5-56-8-78-8-7 0-11 1-14 3-2 1-3 5-3 10 0 7 2 13 6 18 4 5 10 8 16 11 6 3 14 5 22 7 8 2 17 3 25 3 9 0 17 1 24 1 8 1 15 1 20 0l7 0c5 0 8 2 11 6 3 3 5 8 6 15-5 6-15 11-28 16-11 4-20 8-26 13-12 9-23 19-31 32-9 13-13 26-13 40 0 5 2 14 5 25 4 11 6 19 6 25l-1 3c-1 3-1 4-1 4-26-2-40-22-42-61-2 0-5 0-12 0 1 1 1 3 1 6 0 10-4 19-12 26-7 7-16 10-27 10-15 0-31-7-47-22-16-15-24-30-24-46 0-6 3-12 9-19 10 12 16 20 17 22 15 20 27 30 38 30 2 0 5-1 8-3 2-1 4-3 4-6 0-6-8-20-25-41-17-21-28-32-33-32-9 0-15 5-20 13-6 8-8 17-8 26z m-33 2c0-19 4-34 12-46 9-12 22-20 39-25-5-14-8-24-8-30 0-12 6-24 18-35 11-12 23-18 35-18 5 0 12 2 20 5-31-88-47-142-47-162 0-16 4-28 12-38 8-9 19-14 34-14 25 0 56 55 93 166 1 3 2 5 2 7 1-3 4-11 8-23 5-12 9-24 13-34 4-10 9-23 15-36 7-14 13-26 19-36 5-9 12-17 20-24 7-7 15-11 22-11 13 0 24 5 32 14 7 10 11 21 11 35 0 21-15 73-45 157 11 3 21 8 29 14 7 5 13 13 16 22 4 9 6 18 8 27 1 8 2 19 2 31 0 29-5 55-14 80-9 25-21 46-37 64-17 19-37 33-61 43-24 11-50 16-79 16-21 0-43-4-64-12-28-11-53-29-74-55-20-25-31-53-31-82z"/>
    </symbol>
  
</svg>
